Coordinates
version=1
nRows=14
nColumns=42
inDegrees=yes

Units are S.I. units (second, meters, Newtons, ...)
If the header above contains a line with 'inDegrees', this indicates whether rotational values are in degrees (yes) or radians (no).

endheader
time	pelvis_tilt	pelvis_list	pelvis_rotation	pelvis_tx	pelvis_ty	pelvis_tz	hip_flexion_r	hip_adduction_r	hip_rotation_r	knee_angle_r	knee_angle_r_beta	ankle_angle_r	subtalar_angle_r	mtp_angle_r	hip_flexion_l	hip_adduction_l	hip_rotation_l	knee_angle_l	knee_angle_l_beta	ankle_angle_l	subtalar_angle_l	mtp_angle_l	lumbar_extension	lumbar_bending	lumbar_rotation	sh_tx_r	sh_ty_r	sh_tz_r	sh_plane_elev_r	sh_elev_r	sh_axial_rot_r	elbow_flex_r	pro_sup_r	sh_tx_l	sh_ty_l	sh_tz_l	sh_plane_elev_l	sh_elev_l	sh_axial_rot_l	elbow_flex_l	pro_sup_l
      2.16949150	     -0.60757423	      0.72066955	      2.56946393	      0.21916192	      0.94838568	     -0.08477150	     -0.75462122	     -3.16885344	     -3.38024957	      2.62267176	      0.04577426	     -0.74149516	    -10.12286731	     -7.49999981	      0.68439409	     -1.75559751	    -15.51621296	      0.46637581	      0.00813979	      2.35543320	      9.02403737	     -7.49999981	     -0.56274743	     -1.24532644	     -2.10258027	     -0.01514552	     -0.00718522	     -0.00621613	     71.97577295	    103.11939434	    -42.69950800	     28.67883507	     45.30179396	     -0.01546922	     -0.00223793	     -0.00527919	     82.81516132	    112.00407305	    -25.47484159	      6.66936133	     14.15757527
      2.18644070	     -0.53054682	      0.69062955	      2.53524697	      0.21881093	      0.94282443	     -0.08417859	     -0.88301398	     -3.11464109	     -3.15754353	      2.65572012	      0.04635106	     -0.46492689	    -10.17638725	     -7.49999983	      0.54102424	     -1.77389796	    -15.36177693	      0.47030266	      0.00820833	      2.66263296	      8.94704980	     -7.49999983	     -0.50821929	     -1.08265320	     -2.16128126	     -0.01534851	     -0.00879320	     -0.00608643	     73.13518713	    105.31965130	    -40.58385994	     25.97635234	     44.80225177	     -0.01499750	     -0.00242002	     -0.00515856	     82.62970296	    113.16722731	    -24.50722798	      6.39897484	     12.69769252
      2.20338980	     -0.61024786	      0.67820876	      2.59549170	      0.21950432	      0.94193328	     -0.08470714	     -0.85924954	     -3.09924284	     -3.19507683	      2.63428487	      0.04597694	     -0.40327176	    -10.13441891	     -7.49999983	      0.58960380	     -1.77419425	    -15.21652657	      0.45025247	      0.00785839	      2.76711937	      8.99036145	     -7.49999983	      0.01030074	     -1.08776008	     -2.25961321	     -0.01374883	     -0.00770913	     -0.00610548	     73.03431180	    105.90358826	    -41.07372525	     26.56856087	     45.06106915	     -0.01318294	     -0.00180785	     -0.00522152	     82.34456660	    113.94030262	    -25.13744290	      6.77485989	     13.86866094
      2.22033900	     -0.43205527	      0.68710625	      2.56471372	      0.22086890	      0.94408317	     -0.08376925	     -1.07937598	     -3.07284736	     -2.90037905	      2.67707785	      0.04672382	     -0.19023772	    -10.29611899	     -7.49999983	      0.34658207	     -1.76072905	    -15.14797714	      0.46845103	      0.00817601	      3.11622026	      9.06114975	     -7.49999983	     -0.36796871	     -1.09642840	     -2.27497412	     -0.01524979	     -0.00941454	     -0.00603914	     73.69958646	    107.97168418	    -40.32197906	     24.79563339	     44.72560292	     -0.01411394	     -0.00228249	     -0.00511723	     82.51080256	    115.50717150	    -24.33559515	      5.90219254	     12.85031081
      2.23728810	     -0.36835495	      0.69622381	      2.58114892	      0.22186733	      0.94548309	     -0.08483057	     -1.22050294	     -3.07172744	     -2.79809545	      2.65638500	      0.04636266	     -0.13181346	    -10.34408451	     -7.49999984	      0.22949540	     -1.74207113	    -15.17462954	      0.46177489	      0.00805949	      3.19957993	      9.22857150	     -7.49999984	     -0.28922965	     -1.06698581	     -2.55524734	     -0.01482970	     -0.00995854	     -0.00599004	     74.31853558	    109.29279924	    -39.58427785	     23.75073299	     45.19746266	     -0.01444889	     -0.00247378	     -0.00508801	     82.00048386	    116.59724406	    -25.22301929	      6.20729484	     14.28558207
      2.25423730	     -0.35828848	      0.67091750	      2.64030121	      0.22202237	      0.94198944	     -0.08545022	     -1.34056451	     -3.03653789	     -2.58833985	      2.51353967	      0.04386954	     -0.14332140	    -10.53933928	     -7.49999985	      0.20096647	     -1.73808197	    -14.96661311	      0.44876397	      0.00783241	      3.25219857	      8.92993534	     -7.49999985	     -0.15094062	     -1.06461665	     -2.68186376	     -0.01417697	     -0.01024865	     -0.00598249	     74.58141190	    110.56119086	    -39.53894961	     23.15949306	     45.85633802	     -0.01417307	     -0.00250636	     -0.00504131	     81.99503738	    117.75542944	    -26.07403120	      6.01816884	     15.83898577
      2.27118640	     -0.31381541	      0.65561340	      2.64028896	      0.21935449	      0.93824141	     -0.08359942	     -1.37188740	     -3.02954320	     -2.72719930	      2.51440317	      0.04388461	      0.23246813	    -10.04535750	     -7.49999986	      0.16555773	     -1.74542512	    -14.92644549	      0.44680823	      0.00779827	      3.46576803	      8.99234072	     -7.49999986	     -0.14615931	     -0.99956960	     -3.10555900	     -0.01201447	     -0.01070826	     -0.00587935	     76.11163635	    112.55357535	    -36.83721593	     20.72827799	     43.80232305	     -0.01470265	     -0.00189536	     -0.00495547	     81.43101806	    118.82712203	    -25.42956698	      5.93089728	     14.16630460
      2.28813560	     -0.28027121	      0.63389342	      2.64851506	      0.22091034	      0.94165774	     -0.08443306	     -1.44505956	     -3.00513161	     -2.66290517	      2.48389502	      0.04335215	      0.21951855	    -10.08768454	     -7.49999986	      0.15829621	     -1.77659492	    -14.99327536	      0.44927748	      0.00784137	      3.48250349	      9.05701280	     -7.49999986	     -0.04242626	     -1.04967009	     -3.18802124	     -0.01120777	     -0.01056964	     -0.00591939	     76.02017377	    113.34250909	    -37.49992902	     21.09877252	     44.33214791	     -0.01381284	     -0.00175938	     -0.00492800	     81.37116326	    119.79379050	    -25.75647386	      5.69526115	     14.97242217
      2.30508470	     -0.32147549	      0.62212458	      2.62453130	      0.22070088	      0.93589091	     -0.08457200	     -1.42940088	     -2.99997914	     -2.54653738	      2.45654938	      0.04287487	      0.30444788	    -10.21372952	     -7.49999986	      0.19452374	     -1.78307199	    -15.06994158	      0.44975696	      0.00784974	      3.69218678	      9.16494808	     -7.49999986	     -0.01837129	     -1.12343714	     -3.04525380	     -0.01146728	     -0.01060208	     -0.00595026	     75.97742834	    114.59456057	    -38.79720914	     20.68351405	     45.32507025	     -0.01340164	     -0.00100044	     -0.00504423	     81.43958291	    121.08796079	    -27.04131140	      6.15615566	     17.80299575
      2.32203390	     -0.33154787	      0.60776580	      2.59386987	      0.22093000	      0.93858725	     -0.08435777	     -1.41208296	     -2.98733992	     -2.46648209	      2.45920862	      0.04292129	      0.31856483	    -10.35132914	     -7.49999987	      0.21036397	     -1.80775556	    -14.85883343	      0.44542154	      0.00777407	      3.68392696	      8.91721781	     -7.49999987	      0.05130610	     -0.94266482	     -3.25974125	     -0.00963990	     -0.01183444	     -0.00572399	     78.44021587	    116.82682578	    -33.02025021	     16.21836475	     41.62219448	     -0.01407407	     -0.00138683	     -0.00487906	     80.93804264	    122.01796433	    -25.79261834	      5.88693212	     15.26105610
      2.33898300	     -0.35145480	      0.60313773	      2.61944704	      0.22151123	      0.94122576	     -0.08471749	     -1.44797633	     -2.97780930	     -2.41823648	      2.37691049	      0.04148491	      0.19792518	    -10.50565889	     -7.49999987	      0.25420790	     -1.79631424	    -14.71088205	      0.43804922	      0.00764540	      3.69056907	      8.85148887	     -7.49999987	      0.04730617	     -1.07062098	     -3.17754359	     -0.00957595	     -0.01183916	     -0.00577232	     78.35572585	    117.95841750	    -33.23651692	     15.78640782	     41.62523948	     -0.01395426	     -0.00126650	     -0.00496148	     81.02777767	    123.18471979	    -26.00665809	      6.04700794	     15.40709871
      2.35593220	     -0.36341775	      0.58941410	      2.51962422	      0.22160968	      0.94027998	     -0.08622304	     -1.45217491	     -2.97066559	     -2.22323174	      2.37613505	      0.04147138	      0.14827184	    -10.58685213	     -7.49999987	      0.24563154	     -1.78396465	    -14.80091173	      0.42562104	      0.00742849	      3.76439536	      9.07614284	     -7.49999987	      0.08805500	     -1.12660950	     -2.87063011	     -0.01028121	     -0.01203599	     -0.00576486	     78.20776179	    119.11832129	    -32.90374087	     15.07639739	     42.00965029	     -0.01379085	     -0.00129881	     -0.00495325	     81.15193715	    124.14281184	    -25.53097364	      6.03315779	     15.90730685
      2.37288140	     -0.47090857	      0.58129921	      2.46761751	      0.22271661	      0.93696829	     -0.08510240	     -1.34451328	     -2.96072258	     -2.31330790	      2.42042033	      0.04224430	      0.29180939	    -10.37347969	     -7.49999987	      0.32833833	     -1.75775512	    -14.88704964	      0.42488540	      0.00741565	      3.88675837	      9.02697393	     -7.49999987	      0.30856024	     -1.18477134	     -2.40931467	     -0.01050220	     -0.01254949	     -0.00562495	     78.55115174	    120.54810854	    -30.79157129	     12.92820751	     41.96914248	     -0.01224296	     -0.00178856	     -0.00489822	     81.71391993	    125.25210064	    -25.78455320	      5.56089969	     17.43842074
      2.38983050	     -0.52347967	      0.57875027	      2.35066394	      0.22278292	      0.93648744	     -0.08458901	     -1.30249393	     -2.96422555	     -2.32842240	      2.46197487	      0.04296957	      0.49550181	    -10.30729418	     -7.49999987	      0.33425077	     -1.76150583	    -14.78586745	      0.41728196	      0.00728294	      4.00366175	      8.89464928	     -7.49999987	      0.38665086	     -1.22984559	     -2.37342412	     -0.01122413	     -0.01273807	     -0.00565880	     78.16559404	    121.70024019	    -30.99241330	     13.28787156	     42.03488013	     -0.01279597	     -0.00244064	     -0.00495558	     81.34619677	    126.39782867	    -26.04329044	      5.78728268	     18.08594913
